<svg width="17" height="11" viewBox="0 0 17 11" fill="none" xmlns="http://www.w3.org/2000/svg">
<path d="M16.15 0.00456989C16.0776 -0.0015233 16.0046 -0.0015233 15.9322 0.00456989H1.05717C0.961831 0.00576947 0.867126 0.0174429 0.775604 0.0392757L8.45217 6.28199L16.15 0.00456989Z" fill="#FDFBFB"/>
<path d="M16.9363 0.607522L9.20125 6.89795C9.00218 7.05956 8.73288 7.15026 8.45219 7.15026C8.17149 7.15026 7.9022 7.05956 7.70312 6.89795L0.0371875 0.655242C0.0136209 0.725973 0.00112555 0.798857 0 0.872154V9.54861C0 9.77873 0.111942 9.99942 0.311199 10.1621C0.510456 10.3248 0.780707 10.4163 1.0625 10.4163H15.9375C16.2193 10.4163 16.4895 10.3248 16.6888 10.1621C16.8881 9.99942 17 9.77873 17 9.54861V0.872154C16.9958 0.781769 16.9743 0.69248 16.9363 0.607522ZM1.79031 9.54861H1.05188V8.92825L4.91406 5.80038L5.66313 6.41207L1.79031 9.54861ZM15.9269 9.54861H15.1831L11.3103 6.41207L12.0594 5.80038L15.9216 8.92825L15.9269 9.54861Z" fill="#FDFBFB"/>
</svg>
