<svg width="223" height="65" viewBox="0 0 223 65" fill="none" xmlns="http://www.w3.org/2000/svg">
<path d="M2.14871 50.4102V25.5685H32.9963V24.1154H2.14871V1.45264H34.9466V0H0.703979V51.8629H35.2354V50.4102H2.14915H2.14871ZM63.0491 14.5272L50.2624 31.4518L37.7641 14.5277H35.8858L49.3953 32.5418L34.585 51.8624H36.3189L50.2616 33.6304L64.2766 51.8624H66.0826L51.2007 32.5409L64.7822 14.5268H63.0487L63.0491 14.5272ZM70.4176 64.6471V41.4036H70.562C71.4292 44.7933 73.1388 47.5172 75.6914 49.5754C78.244 51.6331 81.4946 52.6624 85.4438 52.6624C87.9964 52.6624 90.2602 52.1419 92.2348 51.1008C94.2093 50.0597 95.8587 48.6433 97.1834 46.8515C98.5076 45.0596 99.5191 42.9775 100.218 40.6045C100.916 38.232 101.265 35.7378 101.265 33.1233C101.265 30.3144 100.904 27.7235 100.181 25.3509C99.4589 22.978 98.4113 20.9198 97.039 19.1768C95.6662 17.4334 94.0047 16.0771 92.0539 15.1093C90.1036 14.1405 87.9001 13.6562 85.4438 13.6562C83.5655 13.6562 81.8198 13.9348 80.2064 14.4915C78.593 15.0487 77.1604 15.8351 75.9082 16.8522C74.6487 17.8772 73.5523 19.0896 72.6571 20.4476C71.7422 21.8279 71.0437 23.3412 70.562 24.9878H70.4176V14.5272H68.9729V64.6471H70.4176ZM85.4438 51.2817C80.9171 51.2817 77.2805 49.7201 74.5355 46.5969C71.7904 43.4736 70.4176 38.9818 70.4176 33.1225C70.4176 30.7011 70.755 28.401 71.4292 26.222C72.1034 24.0431 73.0786 22.13 74.3546 20.4838C75.6311 18.8372 77.2086 17.5297 79.0865 16.5615C80.9648 15.5927 83.0842 15.1084 85.4438 15.1084C87.852 15.1084 89.9593 15.5927 91.7652 16.5615C93.5711 17.5297 95.0644 18.8494 96.2442 20.52C97.424 22.1906 98.315 24.1037 98.9173 26.2582C99.5191 28.4132 99.82 30.7011 99.82 33.1225C99.82 35.3019 99.5434 37.469 98.9893 39.6236C98.4356 41.7786 97.5805 43.7156 96.4246 45.435C95.269 47.1536 93.7883 48.5578 91.982 49.6477C90.1756 50.7372 87.9964 51.2817 85.4438 51.2817ZM109.212 51.8629V30.7255C109.212 28.6918 109.5 26.7059 110.079 24.7694C110.656 22.8324 111.547 21.1251 112.752 19.6485C113.956 18.1715 115.484 17.0092 117.339 16.1617C119.193 15.3142 121.397 14.9632 123.949 15.1084V13.6557C121.733 13.6078 119.795 13.8493 118.134 14.3821C116.472 14.9148 115.039 15.6411 113.835 16.5615C112.631 17.4813 111.668 18.5586 110.946 19.7937C110.224 21.0268 109.688 22.3609 109.356 23.7523H109.212V14.5272H107.767V51.8633H109.212V51.8629ZM125.755 33.4856H156.819C156.916 30.9191 156.663 28.4498 156.061 26.0768C155.459 23.7039 154.495 21.5973 153.171 19.7575C151.847 17.9173 150.137 16.4403 148.042 15.3264C145.947 14.2125 143.454 13.6557 140.565 13.6557C138.494 13.6557 136.471 14.0917 134.496 14.9636C132.522 15.8351 130.788 17.106 129.295 18.7766C127.802 20.4472 126.598 22.4932 125.683 24.915C124.768 27.3359 124.31 30.096 124.31 33.1953C124.31 35.9554 124.623 38.5341 125.249 40.931C125.876 43.328 126.839 45.4106 128.139 47.178C129.44 48.9454 131.113 50.3135 133.16 51.2817C135.206 52.2504 137.675 52.7104 140.565 52.662C144.803 52.662 148.367 51.4631 151.256 49.0666C154.146 46.6692 155.856 43.2918 156.386 38.9335H154.941C154.315 43.0498 152.713 46.1369 150.137 48.1947C147.56 50.2529 144.322 51.2817 140.42 51.2817C137.771 51.2817 135.532 50.8218 133.701 49.9019C131.872 48.982 130.378 47.7225 129.222 46.1247C128.067 44.5265 127.212 42.6501 126.658 40.4951C126.104 38.3405 125.803 36.0038 125.755 33.4856ZM155.374 32.033H125.755C125.899 29.4181 126.381 27.0695 127.2 24.9874C128.019 22.9047 129.09 21.1251 130.415 19.6485C131.739 18.1715 133.28 17.0458 135.038 16.2707C136.796 15.496 138.687 15.1084 140.709 15.1084C143.117 15.1084 145.236 15.5566 147.067 16.4525C148.896 17.3484 150.426 18.5713 151.654 20.1207C152.882 21.6701 153.809 23.4741 154.435 25.5319C155.061 27.5901 155.374 29.7572 155.374 32.033ZM186.8 25.5685H188.245C188.245 21.4037 187.04 18.3772 184.633 16.4886C182.224 14.6 178.949 13.6557 174.807 13.6557C172.496 13.6557 170.545 13.9465 168.956 14.5277C167.367 15.1084 166.066 15.8591 165.055 16.779C164.044 17.6989 163.321 18.716 162.888 19.8299C162.454 20.9438 162.237 22.0093 162.237 23.0259C162.237 25.0597 162.598 26.682 163.321 27.8926C164.044 29.1033 165.175 30.0476 166.716 30.7255C167.776 31.2095 168.98 31.6454 170.328 32.0334C171.677 32.4206 173.242 32.8321 175.024 33.2676C176.613 33.6557 178.179 34.0428 179.72 34.4299C181.261 34.8175 182.622 35.338 183.802 35.9916C184.982 36.6455 185.945 37.4808 186.691 38.4979C187.438 39.5146 187.811 40.8465 187.811 42.4927C187.811 44.0909 187.438 45.4468 186.691 46.5602C185.951 47.6683 184.977 48.5985 183.838 49.2846C182.682 49.9865 181.393 50.4948 179.973 50.8096C178.552 51.1243 177.168 51.2817 175.819 51.2817C171.436 51.2817 168.077 50.3012 165.741 48.3403C163.405 46.3789 162.238 43.2918 162.238 39.0786H160.792C160.792 43.7762 162.057 47.2142 164.585 49.3936C167.114 51.5725 170.858 52.662 175.819 52.662C177.408 52.662 179.009 52.4802 180.623 52.117C182.236 51.7539 183.681 51.161 184.957 50.3374C186.223 49.5256 187.285 48.4322 188.064 47.1418C188.859 45.8339 189.256 44.2361 189.256 42.3475C189.256 40.5557 188.907 39.103 188.209 37.9892C187.51 36.8757 186.595 35.9554 185.463 35.2291C184.331 34.5027 183.055 33.9338 181.634 33.5222C180.206 33.1083 178.773 32.7086 177.336 32.3233C175.568 31.8569 173.798 31.3969 172.026 30.9435C170.509 30.5559 169.101 30.096 167.8 29.5632C166.548 29.0305 165.549 28.268 164.802 27.2753C164.055 26.2826 163.682 24.8662 163.682 23.0259C163.682 22.6872 163.779 22.0816 163.971 21.2102C164.164 20.3382 164.621 19.4545 165.344 18.5586C166.066 17.6631 167.174 16.864 168.667 16.1617C170.16 15.4598 172.207 15.1084 174.807 15.1084C176.59 15.1084 178.215 15.3024 179.684 15.6895C181.153 16.0771 182.417 16.6944 183.476 17.5419C184.536 18.3895 185.355 19.4667 185.933 20.7742C186.511 22.0821 186.8 23.6799 186.8 25.5685ZM220.248 25.5685H221.692C221.692 21.4037 220.489 18.3772 218.081 16.4886C215.672 14.6 212.397 13.6557 208.255 13.6557C205.944 13.6557 203.993 13.9465 202.404 14.5277C200.814 15.1084 199.514 15.8591 198.503 16.779C197.491 17.6989 196.769 18.716 196.335 19.8299C195.902 20.9438 195.685 22.0093 195.685 23.0259C195.685 25.0597 196.047 26.682 196.769 27.8926C197.491 29.1033 198.623 30.0476 200.164 30.7255C201.224 31.2095 202.428 31.6454 203.776 32.0334C205.125 32.4206 206.69 32.8321 208.472 33.2676C210.062 33.6557 211.627 34.0428 213.168 34.4299C214.709 34.8175 216.07 35.338 217.25 35.9916C218.43 36.6455 219.393 37.4808 220.139 38.4979C220.886 39.5146 221.259 40.8465 221.259 42.4927C221.259 44.0909 220.886 45.4468 220.139 46.5602C219.399 47.6683 218.425 48.5985 217.286 49.2846C216.13 49.9865 214.842 50.4948 213.421 50.8096C212 51.1243 210.615 51.2817 209.267 51.2817C204.884 51.2817 201.525 50.3012 199.189 48.3403C196.853 46.3789 195.685 43.2918 195.685 39.0786H194.241C194.241 43.7762 195.505 47.2142 198.033 49.3936C200.562 51.5725 204.306 52.662 209.267 52.662C210.856 52.662 212.458 52.4802 214.071 52.117C215.684 51.7539 217.129 51.161 218.406 50.3374C219.671 49.5256 220.734 48.4322 221.512 47.1418C222.307 45.8339 222.704 44.2361 222.704 42.3475C222.704 40.5557 222.355 39.103 221.656 37.9892C220.958 36.8757 220.043 35.9554 218.911 35.2291C217.78 34.5027 216.503 33.9338 215.083 33.5222C213.654 33.1083 212.221 32.7086 210.784 32.3233C209.016 31.8569 207.246 31.3969 205.474 30.9435C203.957 30.5559 202.548 30.096 201.248 29.5632C199.996 29.0305 198.996 28.268 198.25 27.2753C197.504 26.2826 197.13 24.8662 197.13 23.0259C197.13 22.6872 197.226 22.0816 197.419 21.2102C197.612 20.3382 198.07 19.4545 198.792 18.5586C199.514 17.6631 200.622 16.864 202.115 16.1617C203.608 15.4598 205.655 15.1084 208.256 15.1084C210.038 15.1084 211.663 15.3024 213.132 15.6895C214.601 16.0771 215.865 16.6944 216.925 17.5419C217.984 18.3895 218.803 19.4667 219.381 20.7742C219.959 22.0821 220.248 23.6799 220.248 25.5685H220.248Z" fill="white"/>
</svg>
