<svg width="51" height="114" viewBox="0 0 51 114" fill="none" xmlns="http://www.w3.org/2000/svg">
<path d="M24.9987 0.310547L28.0111 6.00914C28.6883 7.06075 29.422 7.99157 30.2862 8.85844C32.8199 11.3785 35.1815 14.0681 37.3551 16.9089C42.4592 23.6592 45.9019 31.1554 48.3605 39.2628C49.8349 44.2153 50.6356 49.2957 50.6956 54.433C50.9425 69.7915 45.715 82.9793 35.1752 93.9395C33.4608 95.6775 31.6086 97.2721 29.6372 98.7072C28.5931 98.7072 28.0993 97.9008 27.6689 97.1582C26.8852 95.7814 26.3637 94.2692 26.131 92.6995C25.7606 90.8415 25.5172 88.9834 25.6371 87.0649V86.198C25.5525 86.0133 24.6318 0.747534 24.9987 0.310547Z" fill="#599636"/>
<path d="M24.9987 0.122225C24.8753 -0.126467 24.7518 0.0618284 24.6284 0.182622C24.6883 1.42608 24.258 2.53454 23.5843 3.59325C22.8435 4.64487 21.8629 5.45134 20.8788 6.31821C15.4113 11.086 11.108 16.845 7.66172 23.2861C3.07614 31.9548 0.712799 41.2452 0.0425991 51.0259C-0.264282 54.5538 1.15019 67.0026 2.25426 70.5944C5.26663 80.13 10.6776 88.1201 17.6865 95.055C19.4079 96.7248 21.2491 98.2738 23.1539 99.7624C23.7077 99.7624 23.7677 99.265 23.8947 98.8955C24.1375 98.1049 24.3226 97.2975 24.4485 96.4797L25.683 87.1928L24.9987 0.122225Z" fill="#6CAC48"/>
<path d="M28.0111 102.48C28.1345 101.059 28.8118 99.8795 29.549 98.7036C28.8083 98.3945 28.258 97.7799 27.8277 97.0942C27.4566 96.445 27.1494 95.7608 26.9105 95.0514C26.0499 92.4508 25.8664 89.7223 25.6195 87.0648V85.4554C25.3126 85.7041 25.2492 87.8074 25.2492 88.12C25.0697 90.9287 24.6996 93.7217 24.1416 96.4796C23.9581 97.5951 23.8347 98.7071 23.1539 99.6983C23.1539 99.8227 23.1539 99.947 23.2139 100.132C24.3215 103.414 24.6248 106.758 24.8118 110.165V111.408C24.8118 112.893 24.7518 112.581 25.9758 113.078C26.4696 113.263 27.0199 113.327 27.5137 113.696C27.8841 113.696 27.9441 113.387 27.9441 113.138L27.7606 111.095V105.397C27.7007 104.402 27.8841 103.414 28.0076 102.484L28.0111 102.48Z" fill="#C2BFBF"/>
</svg>
