<svg width="92" height="105" viewBox="0 0 92 105" fill="none" xmlns="http://www.w3.org/2000/svg">
<path d="M46 104.806C44.5715 104.806 43.2382 104.42 42.0002 103.747L29.3333 96.14C27.4286 95.0809 28.3809 94.6958 28.9523 94.5032C31.5237 93.6367 31.9998 93.4441 34.6664 91.9033C34.9525 91.7107 35.3334 91.807 35.6187 91.9996L45.3334 97.873C45.7143 98.0656 46.1905 98.0656 46.4762 97.873L84.4765 75.6316C84.8574 75.439 85.0479 75.0539 85.0479 74.5725V30.1851C85.0479 29.7037 84.8574 29.3186 84.4765 29.126L46.4762 6.98045C46.0952 6.78789 45.6191 6.78789 45.3334 6.98045L7.33305 29.1264C6.95211 29.3189 6.76164 29.8003 6.76164 30.1854V74.5725C6.76164 74.9576 6.95211 75.439 7.33305 75.6316L17.7143 81.6972C23.3335 84.5856 26.8568 81.2158 26.8568 77.846V34.0363C26.8568 33.4586 27.3333 32.8809 28 32.8809H32.8573C33.4287 32.8809 34.0001 33.3623 34.0001 34.0363V77.8456C34.0001 85.4521 29.9047 89.881 22.7617 89.881C20.5713 89.881 18.8571 89.881 14.0002 87.474L3.99984 81.6972C1.52375 80.2526 0 77.5568 0 74.6684V30.2817C0 27.3933 1.52375 24.6975 3.99984 23.2529L42.0002 1.01143C44.381 -0.336493 47.619 -0.336493 49.9998 1.01143L88.0002 23.2529C90.4762 24.6971 92 27.393 92 30.2817V74.6688C92 77.5572 90.4762 80.253 88.0002 81.6972L49.9998 103.939C48.7618 104.517 47.3333 104.806 46 104.806V104.806ZM57.7142 74.2833C41.0475 74.2833 37.619 66.5808 37.619 60.0334C37.619 59.4557 38.0952 58.8781 38.7618 58.8781H43.714C44.2854 58.8781 44.762 59.2632 44.762 59.8409C45.5238 64.9437 47.7142 67.4474 57.8094 67.4474C65.8095 67.4474 69.2383 65.618 69.2383 61.2854C69.2383 58.7818 68.2859 56.9525 55.8095 55.7005C45.4286 54.6414 38.9523 52.3306 38.9523 43.9543C38.9523 36.1548 45.4282 31.5334 56.2857 31.5334C68.476 31.5334 74.4762 35.7697 75.238 45.013C75.238 45.3018 75.1428 45.5907 74.9523 45.8795C74.7619 46.0721 74.4762 46.2646 74.1905 46.2646H69.2383C68.7617 46.2646 68.2859 45.8795 68.1903 45.3981C67.0475 40.1027 64.0953 38.3696 56.2857 38.3696C47.5241 38.3696 46.4762 41.4506 46.4762 43.7613C46.4762 46.5538 47.7142 47.42 59.5236 48.9605C71.2382 50.501 76.7618 52.7158 76.7618 60.9962C76.6665 69.4693 69.8097 74.2833 57.7142 74.2833Z" fill="#3CB522"/>
</svg>
