<svg width="102" height="92" viewBox="0 0 102 92" fill="none" xmlns="http://www.w3.org/2000/svg">
<path d="M83.8643 29.7886C82.7788 29.4114 81.6841 29.062 80.5812 28.7407C80.7665 27.974 80.937 27.2166 81.0884 26.4725C83.5739 14.2539 81.949 4.41028 76.3992 1.1693C71.0781 -1.93772 62.3758 1.30205 53.5871 9.04821C52.7209 9.81299 51.8739 10.5998 51.047 11.4079C50.4934 10.8706 49.9301 10.3436 49.3572 9.82739C40.1462 1.54497 30.9136 -1.94579 25.3697 1.30447C20.0534 4.42118 18.4791 13.6748 20.7168 25.2547C20.9394 26.4016 21.1907 27.5426 21.4706 28.6765C20.1637 29.0526 18.9027 29.4528 17.6958 29.8789C6.89655 33.6921 0 39.6677 0 45.866C0 52.2676 7.40377 58.6887 18.6517 62.5821C19.5635 62.8965 20.483 63.1878 21.4092 63.4557C21.1084 64.677 20.8414 65.9066 20.6084 67.143C18.4751 78.5219 20.141 87.5569 25.443 90.6538C30.9191 93.8521 40.1103 90.5651 49.0596 82.6422C49.7853 81.998 50.495 81.3357 51.1881 80.6557C52.0836 81.5307 53.003 82.3803 53.9452 83.2034C62.6145 90.7579 71.1761 93.8085 76.4729 90.7031C81.9439 87.4956 83.7221 77.7896 81.4135 65.9809C81.2317 65.0558 81.0277 64.1352 80.8019 63.2201C81.4474 63.0264 82.0809 62.8271 82.6985 62.6197C94.3918 58.6963 102 52.3532 102 45.866C102 39.6451 94.8807 33.6292 83.8643 29.7886ZM81.3283 58.4312C80.7705 58.6181 80.1983 58.7984 79.615 58.974C78.324 54.8352 76.5821 50.4345 74.45 45.8874C76.4845 41.4488 78.1595 37.1042 79.4142 32.9924C80.4577 33.2983 81.4701 33.6207 82.4463 33.9608C91.8853 37.2519 97.6427 42.117 97.6427 45.866C97.6427 49.8591 91.4247 55.043 81.3283 58.4312ZM77.1391 66.8379C78.1599 72.0593 78.3053 76.7804 77.6292 80.4713C77.0219 83.7877 75.8003 85.9986 74.2895 86.8843C71.0753 88.7686 64.201 86.3193 56.7873 79.8584C55.9109 79.093 55.0556 78.3032 54.2226 77.4898C57.0969 74.3065 59.9692 70.6059 62.7726 66.4958C67.7037 66.0527 72.3622 65.328 76.5869 64.339C76.7904 65.1675 76.9745 66.0007 77.1391 66.8379ZM34.774 86.5586C31.6335 87.6816 29.1322 87.7139 27.6201 86.831C24.4027 84.9519 23.0651 77.6972 24.8896 67.9661C25.1065 66.8163 25.3548 65.6727 25.6343 64.5367C29.8123 65.4729 34.437 66.1459 39.3796 66.5518C42.2021 70.5736 45.1573 74.2702 48.1356 77.5071C47.5027 78.1274 46.8548 78.7317 46.1925 79.3197C42.2348 82.8229 38.2691 85.3086 34.774 86.5586ZM20.0613 58.4066C15.0876 56.6848 10.9801 54.4474 8.16478 52.0058C5.6347 49.8119 4.35771 47.6333 4.35771 45.866C4.35771 42.1045 9.8948 37.3067 19.1302 34.046C20.251 33.6505 21.424 33.2773 22.6412 32.9271C23.9178 37.1316 25.592 41.5278 27.6125 45.9733C25.5657 50.4845 23.8676 54.951 22.5787 59.2052C21.7332 58.9599 20.8939 58.6936 20.0613 58.4066ZM24.9932 24.407C23.0763 14.4859 24.3493 7.00202 27.5531 5.12368C30.9654 3.12309 38.511 5.97549 46.4642 13.1273C46.9828 13.5947 47.493 14.0716 47.9946 14.5577C45.031 17.7805 42.1029 21.4497 39.3055 25.4476C34.5083 25.8979 29.9163 26.621 25.6944 27.5898C25.4343 26.5352 25.2005 25.474 24.9932 24.4074V24.407ZM68.9914 35.4098C67.9943 33.6654 66.9601 31.943 65.8896 30.2437C69.144 30.6605 72.2622 31.2138 75.1903 31.89C74.3114 34.7437 73.2157 37.7268 71.9259 40.7854C70.9832 38.9739 70.0048 37.1817 68.9914 35.4098ZM51.049 17.7115C53.0587 19.9167 55.0716 22.3785 57.0515 25.0498C53.0352 24.8577 49.0123 24.8569 44.9959 25.0473C46.9778 22.4007 49.0078 19.9421 51.049 17.7115ZM32.9914 35.4401C31.9907 37.1977 31.0306 38.9788 30.1119 40.7818C28.8433 37.7341 27.7575 34.7372 26.871 31.8432C29.7812 31.1839 32.8846 30.6448 36.1184 30.2357C35.036 31.9453 33.9934 33.6805 32.9914 35.4397V35.4401ZM36.2112 61.8102C32.8703 61.4325 29.7203 60.9213 26.8109 60.2797C27.7113 57.3341 28.821 54.2735 30.1171 51.1604C31.0394 52.9647 32.0035 54.7469 33.0086 56.5053C34.0421 58.313 35.1123 60.0836 36.2112 61.8102ZM51.1693 74.3311C49.1038 72.0747 47.0439 69.5782 45.0322 66.8932C46.9853 66.9707 48.9763 67.0102 51 67.0102C53.079 67.0102 55.1342 66.963 57.1571 66.8718C55.1708 69.6052 53.1655 72.1053 51.1693 74.3311ZM71.967 51.0014C73.3304 54.1488 74.4795 57.1933 75.3919 60.0884C72.4347 60.772 69.2417 61.3224 65.8773 61.7311C66.9553 60.0003 67.9993 58.2479 69.0086 56.475C70.0347 54.673 71.0211 52.848 71.967 51.0014ZM65.2342 54.2703C63.6891 56.9884 62.0572 59.655 60.341 62.2658C57.2322 62.4888 54.1166 62.5995 51 62.5979C47.8256 62.5979 44.7382 62.4978 41.765 62.3025C40.004 59.6978 38.3409 57.0265 36.7794 54.2945H36.7798C35.2255 51.5769 33.7738 48.8005 32.4276 45.9713C33.7704 43.1414 35.2177 40.3637 36.7666 37.6441L36.7662 37.6445C38.3145 34.9241 39.9643 32.2643 41.712 29.6707C44.7453 29.4383 47.8559 29.3173 50.9996 29.3173H51C54.158 29.3173 57.2726 29.4395 60.3051 29.6736C62.0352 32.2632 63.6744 34.9139 65.2198 37.6207C66.7739 40.3343 68.2404 43.0985 69.617 45.9087C68.2545 48.7477 66.7927 51.5367 65.2342 54.2703ZM74.2229 4.99214C77.6383 6.98709 78.9667 15.0318 76.8207 25.5816C76.6837 26.2546 76.5299 26.9402 76.3625 27.6354C72.1303 26.646 67.5352 25.9104 62.724 25.4533C59.9214 21.4113 57.0172 17.7366 54.1018 14.5553C54.8659 13.8094 55.6481 13.0829 56.4478 12.3764C63.9783 5.73984 71.0163 3.11946 74.2229 4.99214ZM51 36.6418C56.0303 36.6418 60.1083 40.7717 60.1083 45.866C60.1083 50.9603 56.0303 55.0902 51 55.0902C45.9697 55.0902 41.8917 50.9603 41.8917 45.866C41.8917 40.7717 45.9697 36.6418 51 36.6418Z" fill="#00D8FF"/>
</svg>
