<svg width="24" height="30" viewBox="0 0 24 30" fill="none" xmlns="http://www.w3.org/2000/svg">
<path d="M12 5.66669L12.7066 4.96002C12.5191 4.77275 12.265 4.66757 12 4.66757C11.735 4.66757 11.4808 4.77275 11.2933 4.96002L12 5.66669ZM12 16.3334L11.2933 17.04C11.4808 17.2273 11.735 17.3325 12 17.3325C12.265 17.3325 12.5191 17.2273 12.7066 17.04L12 16.3334ZM8.62665 7.62669C8.45001 7.81625 8.35384 8.06698 8.35841 8.32605C8.36298 8.58512 8.46793 8.8323 8.65115 9.01552C8.83437 9.19873 9.08155 9.30368 9.34062 9.30825C9.59968 9.31283 9.85041 9.21666 10.04 9.04002L8.62665 7.62669ZM13.96 9.04002C14.0515 9.13827 14.1619 9.21707 14.2846 9.27173C14.4073 9.32638 14.5397 9.35577 14.6739 9.35814C14.8082 9.36051 14.9416 9.33581 15.0661 9.28552C15.1906 9.23522 15.3037 9.16036 15.3987 9.0654C15.4937 8.97045 15.5685 8.85734 15.6188 8.73282C15.6691 8.6083 15.6938 8.47493 15.6914 8.34066C15.6891 8.20639 15.6597 8.07397 15.605 7.9513C15.5504 7.82864 15.4716 7.71824 15.3733 7.62669L13.96 9.04002ZM10.04 12.96C9.94843 12.8618 9.83803 12.783 9.71536 12.7283C9.5927 12.6737 9.46028 12.6443 9.32601 12.6419C9.19174 12.6395 9.05837 12.6642 8.93385 12.7145C8.80933 12.7648 8.69622 12.8397 8.60126 12.9346C8.5063 13.0296 8.43144 13.1427 8.38115 13.2672C8.33085 13.3917 8.30615 13.5251 8.30852 13.6594C8.31089 13.7937 8.34028 13.9261 8.39494 14.0487C8.44959 14.1714 8.5284 14.2818 8.62665 14.3734L10.04 12.96ZM15.3733 14.3734C15.4716 14.2818 15.5504 14.1714 15.605 14.0487C15.6597 13.9261 15.6891 13.7937 15.6914 13.6594C15.6938 13.5251 15.6691 13.3917 15.6188 13.2672C15.5685 13.1427 15.4937 13.0296 15.3987 12.9346C15.3037 12.8397 15.1906 12.7648 15.0661 12.7145C14.9416 12.6642 14.8082 12.6395 14.6739 12.6419C14.5397 12.6443 14.4073 12.6737 14.2846 12.7283C14.1619 12.783 14.0515 12.8618 13.96 12.96L15.3733 14.3734ZM0.333313 12.3334V17.6667H2.33331V12.3334H0.333313ZM23.6666 17.6667V12.3334H21.6666V17.6667H23.6666ZM11 5.66669V16.3334H13V5.66669H11ZM11.2933 4.96002L8.62665 7.62669L10.04 9.04002L12.7066 6.37335L11.2933 4.96002ZM11.2933 6.37335L13.96 9.04002L15.3733 7.62669L12.7066 4.96002L11.2933 6.37335ZM12.7066 15.6267L10.04 12.96L8.62665 14.3734L11.2933 17.04L12.7066 15.6267ZM12.7066 17.04L15.3733 14.3734L13.96 12.96L11.2933 15.6267L12.7066 17.04ZM23.6666 12.3334C23.6666 9.23916 22.4375 6.2717 20.2496 4.08377C18.0616 1.89585 15.0942 0.666687 12 0.666687V2.66669C14.5637 2.66669 17.0225 3.68514 18.8353 5.49799C20.6482 7.31084 21.6666 9.76959 21.6666 12.3334H23.6666ZM12 29.3334C13.5321 29.3334 15.0492 29.0316 16.4646 28.4453C17.8801 27.859 19.1662 26.9996 20.2496 25.9163C21.3329 24.8329 22.1923 23.5468 22.7786 22.1313C23.3649 20.7159 23.6666 19.1988 23.6666 17.6667H21.6666C21.6666 20.2304 20.6482 22.6892 18.8353 24.5021C17.0225 26.3149 14.5637 27.3334 12 27.3334V29.3334ZM0.333313 17.6667C0.333313 20.7609 1.56248 23.7283 3.7504 25.9163C5.93832 28.1042 8.90579 29.3334 12 29.3334V27.3334C9.43622 27.3334 6.97747 26.3149 5.16461 24.5021C3.35176 22.6892 2.33331 20.2304 2.33331 17.6667H0.333313ZM2.33331 12.3334C2.33331 9.76959 3.35176 7.31084 5.16461 5.49799C6.97747 3.68514 9.43622 2.66669 12 2.66669V0.666687C8.90579 0.666687 5.93832 1.89585 3.7504 4.08377C1.56248 6.2717 0.333313 9.23916 0.333313 12.3334H2.33331Z" fill="white"/>
</svg>
